/* XPM */
static char * icon_xpm[] = {
"48 48 4 1",
" 	c #000000",
".	c #FF0000",
"+	c #00FF00",
"@	c #0000FF",
"                                                ",
"                                                ",
"  ..................... ++++++++++++++++++++++  ",
"  ..................... ++++++++++++++++++++++  ",
"  ..................... ++++++++++++++++++++++  ",
"  ..................... ++++++++++++++++++++++  ",
"  ..................... ++++++++++++++++++++++  ",
"  ..................... ++++++++++++++++++++++  ",
"  ..................... ++++++++++++++++++++++  ",
"  ..................... ++++++++++++++++++++++  ",
"  ..................... ++++++++++++++++++++++  ",
"  ..................... ++++++++++++++++++++++  ",
"  ..................... ++++++++++++++++++++++  ",
"  ..................... ++++++++++++++++++++++  ",
"  ..................... ++++++++++++++++++++++  ",
"  ..................... ++++++++++++++++++++++  ",
"  ..................... ++++++++++++++++++++++  ",
"  ..................... ++++++++++++++++++++++  ",
"  ..................... ++++++++++++++++++++++  ",
"  ..................... ++++++++++++++++++++++  ",
"  ..................... ++++++++++++++++++++++  ",
"  ..................... ++++++++++++++++++++++  ",
"  ..................... ++++++++++++++++++++++  ",
"  ..................... ++++++++++++++++++++++  ",
"                                                ",
"  +++++++++++++++++++++ @@@@@@@@@@@@@@@@@@@@@@  ",
"  +++++++++++++++++++++ @@@@@@@@@@@@@@@@@@@@@@  ",
"  +++++++++++++++++++++ @@@@@@@@@@@@@@@@@@@@@@  ",
"  +++++++++++++++++++++ @@@@@@@@@@@@@@@@@@@@@@  ",
"  +++++++++++++++++++++ @@@@@@@@@@@@@@@@@@@@@@  ",
"  +++++++++++++++++++++ @@@@@@@@@@@@@@@@@@@@@@  ",
"  +++++++++++++++++++++ @@@@@@@@@@@@@@@@@@@@@@  ",
"  +++++++++++++++++++++ @@@@@@@@@@@@@@@@@@@@@@  ",
"  +++++++++++++++++++++ @@@@@@@@@@@@@@@@@@@@@@  ",
"  +++++++++++++++++++++ @@@@@@@@@@@@@@@@@@@@@@  ",
"  +++++++++++++++++++++ @@@@@@@@@@@@@@@@@@@@@@  ",
"  +++++++++++++++++++++ @@@@@@@@@@@@@@@@@@@@@@  ",
"  +++++++++++++++++++++ @@@@@@@@@@@@@@@@@@@@@@  ",
"  +++++++++++++++++++++ @@@@@@@@@@@@@@@@@@@@@@  ",
"  +++++++++++++++++++++ @@@@@@@@@@@@@@@@@@@@@@  ",
"  +++++++++++++++++++++ @@@@@@@@@@@@@@@@@@@@@@  ",
"  +++++++++++++++++++++ @@@@@@@@@@@@@@@@@@@@@@  ",
"  +++++++++++++++++++++ @@@@@@@@@@@@@@@@@@@@@@  ",
"  +++++++++++++++++++++ @@@@@@@@@@@@@@@@@@@@@@  ",
"  +++++++++++++++++++++ @@@@@@@@@@@@@@@@@@@@@@  ",
"  +++++++++++++++++++++ @@@@@@@@@@@@@@@@@@@@@@  ",
"                                                ",
"                                                "};
